#!OML:ASF H:\Terrain\Patient Classification 1\Takeo\Monday\TakeoMonday.ASF
:FULLY-SPECIFIED
:DEGREES
164
root 9.96088 17.3881 -2.0299 -5.04367 -6.0756 2.77825
lowerback 5.46561 0.861072 -1.70401
upperback 1.3489 1.03936 -0.542873
thorax -1.69605 0.523283 0.327227
lowerneck -8.52004 7.86107 3.87869
upperneck 4.69383 10.2961 -3.30495
head 3.44078 5.05272 -1.15245
rclavicle 3.87397e-015 -7.35503e-015
rhumerus -23.28 9.96332 -88.2585
rradius 39.9965
rwrist -14.5261
rhand -21.7133 17.5708
rfingers 7.12502
rthumb 4.68559 -12.3574
lclavicle 3.87397e-015 -7.35503e-015
lhumerus -38.8737 14.9591 81.5174
lradius 27.0399
lwrist 19.4265
lhand -22.0033 20.0845
lfingers 7.12502
lthumb 4.40555 50.0187
rfemur -2.75557 4.80033 18.5679
rtibia 65.3092
rfoot 10.517 -10.0306
rtoes -27.5143
lfemur -13.4724 -0.198588 -28.0672
ltibia 31.0463
lfoot -11.7632 11.9431
ltoes -3.38667
165
root 9.97099 17.4085 -1.86301 -5.13617 -5.88153 3.16532
lowerback 5.55644 0.836747 -2.08496
upperback 1.34934 0.981158 -0.638732
thorax -1.74975 0.495791 0.444923
lowerneck -8.30091 7.82733 4.02393
upperneck 4.6682 10.2616 -3.56335
head 3.41625 5.03126 -1.27255
rclavicle -1.39025e-014 3.67752e-015
rhumerus -23.9829 9.4472 -88.3729
rradius 38.9476
rwrist -14.2742
rhand -21.4301 17.6175
rfingers 7.12502
rthumb 4.95905 -12.3044
lclavicle -1.39025e-014 3.67752e-015
lhumerus -38.6751 14.065 82.2017
lradius 29.0608
lwrist 20.0561
lhand -21.652 21.1769
lfingers 7.12502
lthumb 4.74479 51.1038
rfemur -4.33428 4.69062 18.0147
rtibia 66.9339
rfoot 7.90562 -11.6811
rtoes -23.23
lfemur -12.5166 -0.202286 -28.6431
ltibia 30.5327
lfoot -12.0246 11.9733
ltoes -4.2507
166
root 9.9821 17.4243 -1.69968 -5.15665 -5.7121 2.9542
lowerback 5.7056 0.737225 -1.92288
upperback 1.26361 0.85537 -0.515955
thorax -1.91776 0.434367 0.486466
lowerneck -7.73667 7.74677 4.11526
upperneck 4.4112 10.1752 -3.80796
head 3.23884 4.98957 -1.39998
rclavicle -9.5238e-015 -2.38542e-015
rhumerus -24.7698 9.14264 -88.4728
rradius 37.8579
rwrist -13.9595
rhand -21.6061 17.519
rfingers 7.12502
rthumb 4.78909 -12.4069
lclavicle -9.5238e-015 -2.38542e-015
lhumerus -38.2529 13.0477 82.9266
lradius 30.3822
lwrist 21.0471
lhand -21.5142 21.8698
lfingers 7.12502
lthumb 4.87784 51.7937
rfemur -5.82202 4.56988 18.2113
rtibia 68.2247
rfoot 5.53668 -13.0213
rtoes -19.795
lfemur -11.6347 -0.0848513 -28.5752
ltibia 30.1196
lfoot -12.312 11.9164
ltoes -4.37776
167
root 9.99086 17.4471 -1.54326 -5.09548 -5.40598 2.61434
lowerback 5.81491 0.570484 -1.73453
upperback 1.23831 0.647751 -0.249688
thorax -2.00102 0.331112 0.668519
lowerneck -7.64668 7.78136 3.80262
upperneck 4.36208 10.2589 -3.85259
head 3.19069 5.02536 -1.36055
rclavicle 3.57191e-015 7.7526e-015
rhumerus -25.2545 8.77227 -88.3262
rradius 36.5609
rwrist -13.3806
rhand -21.3748 17.2284
rfingers 7.12502
rthumb 5.01245 -12.6923
lclavicle 3.57191e-015 7.7526e-015
lhumerus -37.4435 12.1035 83.7859
lradius 31.3216
lwrist 21.9676
lhand -21.9954 21.8302
lfingers 7.12502
lthumb 4.41325 51.7642
rfemur -7.34099 4.25525 18.5977
rtibia 69.22
rfoot 3.60686 -14.1387
rtoes -20.2684
lfemur -10.9163 -0.106793 -28.3268
ltibia 29.8271
lfoot -12.5463 11.6971
ltoes -4.77306
168
root 10.006 17.4717 -1.37638 -5.12584 -5.05091 2.39824
lowerback 5.82528 0.408775 -1.50213
upperback 1.31874 0.45096 -0.07858
thorax -1.91885 0.231072 0.729005
lowerneck -7.85986 7.85338 3.55053
upperneck 4.60922 10.3827 -3.84193
head 3.30429 5.0781 -1.29374
rclavicle -1.50828e-014 -7.7526e-015
rhumerus -25.732 8.24754 -88.1698
rradius 35.1819
rwrist -12.8945
rhand -21.4122 17.4462
rfingers 7.12502
rthumb 4.97635 -12.4754
lclavicle -1.50828e-014 -7.7526e-015
lhumerus -36.7368 11.3897 84.447
lradius 32.6144
lwrist 22.1607
lhand -22.0605 21.8691
lfingers 7.12502
lthumb 4.35031 51.8044
rfemur -8.64957 3.88228 18.7642
rtibia 69.9562
rfoot 1.70787 -15.0981
rtoes -21.5297
lfemur -10.1312 -0.426104 -28.2318
ltibia 29.6735
lfoot -12.9685 11.5962
ltoes -4.90672
169
root 10.021 17.4811 -1.20628 -5.31563 -4.7104 2.29472
lowerback 5.88171 0.316624 -1.27942
upperback 1.46294 0.342482 -0.0500188
thorax -1.79837 0.174604 0.641578
lowerneck -8.05571 7.86938 3.61656
upperneck 4.97518 10.4054 -3.85865
head 3.47585 5.0847 -1.29436
rclavicle -1.92573e-015 -3.57812e-015
rhumerus -26.3053 7.61437 -88.1091
rradius 33.9878
rwrist -12.5245
rhand -21.9204 17.5105
rfingers 7.12502
rthumb 4.48563 -12.422
lclavicle -1.92573e-015 -3.57812e-015
lhumerus -36.0511 10.1801 85.0868
lradius 34.0423
lwrist 22.729
lhand -21.713 22.0747
lfingers 7.12502
lthumb 4.68593 52.0029
rfemur -9.78234 3.63444 18.8017
rtibia 70.5087
rfoot 0.248041 -15.7853
rtoes -21.3593
lfemur -9.16412 -0.876721 -28.3049
ltibia 29.496
lfoot -13.6856 11.7129
ltoes -3.40909
170
root 10.0274 17.4758 -1.04525 -5.40944 -4.30259 2.22195
lowerback 5.90478 0.232997 -1.21114
upperback 1.58126 0.236559 -0.0106853
thorax -1.6873 0.120385 0.651613
lowerneck -8.14319 7.79945 3.38368
upperneck 5.13057 10.3241 -3.65343
head 3.51371 5.04558 -1.18735
rclavicle -1.38963e-014 -8.15017e-015
rhumerus -26.8571 6.49179 -87.8667
rradius 33.0235
rwrist -11.8873
rhand -21.8094 17.1387
rfingers 7.12502
rthumb 4.59284 -12.7915
lclavicle -1.38963e-014 -8.15017e-015
lhumerus -35.3669 8.96992 85.7515
lradius 35.4501
lwrist 23.5314
lhand -21.7604 22.1696
lfingers 7.12502
lthumb 4.64015 52.0988
rfemur -11.1208 3.49953 18.8863
rtibia 70.9144
rfoot -0.687449 -16.4073
rtoes -19.7501
lfemur -8.30306 -1.11871 -28.4032
ltibia 29.2635
lfoot -14.3386 11.6845
ltoes -1.82501
171
root 10.0355 17.4751 -0.882741 -5.38283 -3.78668 2.22581
lowerback 5.81289 0.0827189 -1.29016
upperback 1.62165 0.0341782 0.0205778
thorax -1.59046 0.0188091 0.742776
lowerneck -8.11187 7.86086 3.42751
upperneck 5.26292 10.4029 -3.60032
head 3.5563 5.08713 -1.17088
rclavicle 7.25564e-015 1.88845e-014
rhumerus -27.5145 5.19926 -87.5963
rradius 32.1097
rwrist -11.2968
rhand -21.4423 16.6028
rfingers 7.12502
rthumb 4.94726 -13.3194
lclavicle 7.25564e-015 1.88845e-014
lhumerus -34.7879 7.8703 86.3006
lradius 36.8517
lwrist 24.2043
lhand -21.8721 22.8374
lfingers 7.12502
lthumb 4.53229 52.7689
rfemur -12.459 3.31568 18.8503
rtibia 71.0699
rfoot -1.65494 -17.0333
rtoes -17.1344
lfemur -7.59575 -1.17707 -28.5723
ltibia 29.152
lfoot -14.7845 11.3859
ltoes -1.18288
172
root 10.0457 17.4888 -0.718195 -5.4313 -3.29661 2.29999
lowerback 5.85237 -0.0388515 -1.48499
upperback 1.64948 -0.138147 0.0848596
thorax -1.57924 -0.0670936 0.930415
lowerneck -8.2311 7.97376 3.73995
upperneck 5.69552 10.5508 -3.83765
head 3.7762 5.15261 -1.27803
rclavicle -5.00378e-015 -1.03368e-014
rhumerus -28.2491 4.39065 -87.3481
rradius 31.1487
rwrist -11.0629
rhand -21.6932 16.092
rfingers 7.12502
rthumb 4.70505 -13.8357
lclavicle -5.00378e-015 -1.03368e-014
lhumerus -34.2322 6.78183 86.8355
lradius 38.2845
lwrist 24.8015
lhand -21.7191 23.7687
lfingers 7.12502
lthumb 4.68004 53.697
rfemur -13.5603 3.19948 18.7109
rtibia 70.9398
rfoot -2.57929 -17.515
rtoes -16.5192
lfemur -6.90952 -1.34504 -28.7908
ltibia 29.145
lfoot -15.1221 11.2424
ltoes -2.31511
173
root 10.0491 17.4969 -0.566534 -5.47399 -2.89219 1.94008
lowerback 6.12235 -0.0800112 -1.21041
upperback 1.65202 -0.176381 0.279293
thorax -1.72631 -0.0856759 0.979738
lowerneck -8.22539 7.84869 3.60419
upperneck 5.77357 10.4083 -3.91386
head 3.79299 5.07543 -1.28901
rclavicle 3.71789e-015 1.55052e-014
rhumerus -28.9875 3.47736 -86.9592
rradius 30.1162
rwrist -10.8338
rhand -21.8057 16.0018
rfingers 7.12502
rthumb 4.59635 -13.9283
lclavicle 3.71789e-015 1.55052e-014
lhumerus -33.6773 5.5576 87.4286
lradius 39.7974
lwrist 25.3089
lhand -21.6387 24.2731
lfingers 7.12502
lthumb 4.75768 54.1997
rfemur -14.7142 3.27394 19.1646
rtibia 70.6261
rfoot -3.70782 -17.9602
rtoes -16.8007
lfemur -6.36423 -1.57476 -28.4704
ltibia 29.1849
lfoot -15.2858 11.2482
ltoes -5.19661
174
root 10.053 17.4919 -0.415291 -5.30593 -2.43244 1.73264
lowerback 6.19351 -0.183131 -1.03977
upperback 1.5336 -0.30189 0.379519
thorax -1.8849 -0.147063 0.997145
lowerneck -7.87081 7.68952 3.51452
upperneck 5.54274 10.2101 -3.95101
head 3.63112 4.98082 -1.31777
rclavicle -2.73018e-015 3.57812e-015
rhumerus -29.9024 2.91855 -86.7728
rradius 29.155
rwrist -11.3082
rhand -21.7488 16.5983
rfingers 7.12502
rthumb 4.65138 -13.3307
lclavicle -2.73018e-015 3.57812e-015
lhumerus -33.3358 4.22249 87.8563
lradius 41.4027
lwrist 26.0201
lhand -21.8351 24.4909
lfingers 7.12502
lthumb 4.56797 54.4217
rfemur -16.1207 3.24398 19.3793
rtibia 70.2049
rfoot -5.20642 -18.1927
rtoes -16.0092
lfemur -6.02353 -1.76561 -28.3258
ltibia 29.2331
lfoot -15.6413 11.088
ltoes -6.41975
175
root 10.059 17.4812 -0.255929 -5.15368 -1.94495 1.98147
lowerback 6.11904 -0.325515 -1.4174
upperback 1.47927 -0.514121 0.391382
thorax -1.8904 -0.251167 1.23733
lowerneck -7.61408 7.62961 3.62528
upperneck 5.4438 10.1361 -4.12467
head 3.56333 4.94424 -1.41011
rclavicle 3.23957e-015 8.74653e-015
rhumerus -30.7708 2.58198 -86.6218
rradius 28.3143
rwrist -12.0282
rhand -21.7717 17.5639
rfingers 7.12502
rthumb 4.62923 -12.3655
lclavicle 3.23957e-015 8.74653e-015
lhumerus -33.0292 3.30342 88.1765
lradius 43.1379
lwrist 26.5445
lhand -22.062 24.6419
lfingers 7.12502
lthumb 4.34887 54.5772
rfemur -17.4667 3.11691 18.9978
rtibia 69.6486
rfoot -5.89846 -18.1553
rtoes -16.6456
lfemur -5.56286 -1.99575 -28.7097
ltibia 29.1893
lfoot -16.3924 10.7773
ltoes -4.50573
